<svg width="223.047" height="59.18" viewBox="0 0 223.047 59.18" xmlns="http://www.w3.org/2000/svg"><g id="svgGroup" stroke-linecap="round" fill-rule="evenodd" font-size="9pt" stroke="#000" stroke-width="0.25mm" fill="#000" style="stroke:#000;stroke-width:0.25mm;fill:#000"><path d="M 157.373 20.337 L 158.154 20.679 Q 157.87 21.247 157.381 22.127 A 78.574 78.574 0 0 1 157.263 22.339 A 118.516 118.516 0 0 0 156.668 23.416 A 153.752 153.752 0 0 0 156.03 24.597 A 103.353 103.353 0 0 0 155.035 26.508 A 114.939 114.939 0 0 0 154.7 27.173 A 50.694 50.694 0 0 0 153.761 29.153 A 45.367 45.367 0 0 0 153.479 29.797 A 28.03 28.03 0 0 0 152.923 31.193 A 22.059 22.059 0 0 0 152.576 32.214 A 9.981 9.981 0 0 0 152.374 32.953 Q 152.293 33.306 152.255 33.617 A 4.246 4.246 0 0 0 152.222 34.131 Q 152.222 34.912 152.527 35.144 Q 152.816 35.364 153.268 35.375 A 1.995 1.995 0 0 0 153.32 35.376 A 2.667 2.667 0 0 0 154.197 35.222 A 3.616 3.616 0 0 0 154.773 34.961 A 7.249 7.249 0 0 0 155.694 34.347 A 8.923 8.923 0 0 0 156.238 33.887 A 14.046 14.046 0 0 0 157.298 32.802 A 16.267 16.267 0 0 0 157.642 32.398 A 29.507 29.507 0 0 0 158.923 30.725 Q 159.522 29.883 160.01 29.114 Q 160.498 28.345 160.84 27.808 L 161.719 28.491 L 160.84 27.808 Q 162.085 25.855 163.098 24.231 Q 164.111 22.608 165.051 21.436 Q 165.789 20.516 166.497 19.919 A 6.783 6.783 0 0 1 166.882 19.617 A 3.465 3.465 0 0 1 167.831 19.122 A 2.988 2.988 0 0 1 168.774 18.97 Q 169.312 18.97 169.812 19.19 A 2.516 2.516 0 0 1 170.691 19.837 A 2.971 2.971 0 0 1 171.136 20.511 A 3.668 3.668 0 0 1 171.289 20.874 Q 171.506 21.475 171.509 22.266 A 5.869 5.869 0 0 1 171.509 22.29 A 6.063 6.063 0 0 1 171.426 23.27 A 7.052 7.052 0 0 1 171.362 23.608 A 24.064 24.064 0 0 1 172.274 22.76 Q 172.7 22.385 173.1 22.075 A 13.576 13.576 0 0 1 173.364 21.875 A 16.17 16.17 0 0 1 174.148 21.331 Q 174.634 21.015 175.073 20.789 A 8.742 8.742 0 0 1 175.734 20.481 Q 176.143 20.311 176.514 20.215 A 5.885 5.885 0 0 1 177.067 20.098 Q 177.408 20.044 177.71 20.044 Q 178.09 20.044 178.568 20.159 A 5.926 5.926 0 0 1 178.784 20.215 A 2.851 2.851 0 0 1 179.659 20.636 A 3.488 3.488 0 0 1 179.932 20.85 A 3.14 3.14 0 0 1 180.443 21.422 Q 180.664 21.735 180.847 22.131 Q 181.226 22.949 181.226 24.243 A 6.491 6.491 0 0 1 180.984 25.973 A 7.562 7.562 0 0 1 180.859 26.379 A 15.413 15.413 0 0 1 180.035 28.349 A 17.066 17.066 0 0 1 179.932 28.552 A 36.653 36.653 0 0 1 178.735 30.689 A 110.598 110.598 0 0 0 177.824 32.222 A 97.216 97.216 0 0 0 177.539 32.715 Q 176.978 33.691 176.611 34.583 Q 176.245 35.474 176.245 36.206 A 2.011 2.011 0 0 0 176.26 36.464 Q 176.306 36.816 176.489 36.963 A 0.895 0.895 0 0 0 176.771 37.118 A 0.817 0.817 0 0 0 177.026 37.158 Q 177.693 37.158 178.472 36.686 A 5.996 5.996 0 0 0 179.102 36.243 A 14.575 14.575 0 0 0 180.258 35.208 Q 180.841 34.631 181.433 33.936 A 44.438 44.438 0 0 0 183.193 31.723 A 51.34 51.34 0 0 0 183.789 30.908 Q 184.961 29.273 185.913 27.808 L 186.792 28.491 Q 186.597 28.784 186.084 29.651 A 28.311 28.311 0 0 1 185.665 30.335 Q 185.476 30.635 185.264 30.958 A 49.794 49.794 0 0 1 184.814 31.629 A 42.542 42.542 0 0 1 183.797 33.055 A 51.659 51.659 0 0 1 183.118 33.948 A 19.52 19.52 0 0 1 181.104 36.17 A 12.9 12.9 0 0 1 179.737 37.298 A 10.833 10.833 0 0 1 178.894 37.842 A 5.07 5.07 0 0 1 177.756 38.336 A 4.107 4.107 0 0 1 176.611 38.501 A 3.426 3.426 0 0 1 175.908 38.432 A 2.832 2.832 0 0 1 175.415 38.281 A 2.713 2.713 0 0 1 174.673 37.834 A 2.531 2.531 0 0 1 174.5 37.671 Q 174.121 37.28 173.901 36.755 Q 173.682 36.231 173.682 35.645 Q 173.682 34.692 174.109 33.582 A 18.509 18.509 0 0 1 174.794 32.025 A 21.949 21.949 0 0 1 175.171 31.299 Q 175.806 30.127 176.563 28.943 Q 177.319 27.759 177.954 26.685 Q 178.589 25.61 179.016 24.695 A 5.964 5.964 0 0 0 179.251 24.122 Q 179.35 23.834 179.398 23.576 A 2.484 2.484 0 0 0 179.443 23.12 Q 179.443 22.363 179.041 21.851 A 1.312 1.312 0 0 0 178.11 21.349 A 1.904 1.904 0 0 0 177.905 21.338 A 2.341 2.341 0 0 0 177.258 21.437 Q 176.966 21.521 176.646 21.677 A 5.825 5.825 0 0 0 176.099 21.985 A 9.93 9.93 0 0 0 175.295 22.554 Q 174.881 22.878 174.433 23.283 A 21.692 21.692 0 0 0 173.804 23.877 A 31.33 31.33 0 0 0 172.649 25.076 Q 172.07 25.708 171.45 26.441 A 56.593 56.593 0 0 0 171.033 26.941 A 108.963 108.963 0 0 0 169.467 28.885 A 149.256 149.256 0 0 0 167.773 31.079 A 267.967 267.967 0 0 1 166.059 33.354 A 242.665 242.665 0 0 1 165.82 33.667 Q 165.405 34.204 164.99 34.766 A 131.587 131.587 0 0 1 164.16 35.877 A 92.291 92.291 0 0 0 163.757 36.414 A 78.914 78.914 0 0 0 163.379 36.926 A 32.295 32.295 0 0 1 163.073 37.339 Q 162.932 37.525 162.804 37.687 A 17.617 17.617 0 0 1 162.72 37.793 L 160.571 36.914 L 163.428 32.983 A 45.064 45.064 0 0 0 164.279 31.784 A 52.688 52.688 0 0 0 164.673 31.201 Q 165.308 30.249 165.93 29.236 Q 166.553 28.223 167.114 27.197 A 61.331 61.331 0 0 0 168.041 25.44 A 55.322 55.322 0 0 0 168.164 25.195 Q 168.856 23.763 169.129 22.809 A 7.077 7.077 0 0 0 169.141 22.766 A 10.323 10.323 0 0 0 169.282 22.202 Q 169.409 21.619 169.409 21.216 A 2.775 2.775 0 0 0 169.396 20.932 Q 169.366 20.645 169.271 20.48 A 0.489 0.489 0 0 0 169.165 20.349 A 0.809 0.809 0 0 0 168.872 20.194 Q 168.701 20.142 168.481 20.142 A 1.119 1.119 0 0 0 168.115 20.209 Q 167.793 20.32 167.419 20.618 Q 166.821 21.094 166.187 21.838 A 18.634 18.634 0 0 0 165.469 22.738 A 23.458 23.458 0 0 0 164.905 23.523 A 56.639 56.639 0 0 0 163.672 25.391 A 226.292 226.292 0 0 0 163.104 26.294 A 189.753 189.753 0 0 0 162.573 27.149 A 77.238 77.238 0 0 1 162.328 27.544 Q 162.025 28.028 161.793 28.38 A 24.545 24.545 0 0 1 161.719 28.491 A 25.127 25.127 0 0 1 161.267 29.303 A 33.116 33.116 0 0 1 160.742 30.176 A 28.362 28.362 0 0 1 159.675 31.766 A 31.287 31.287 0 0 1 159.509 31.995 A 21.217 21.217 0 0 1 158.057 33.765 A 12.543 12.543 0 0 1 156.57 35.153 A 11.521 11.521 0 0 1 156.409 35.278 Q 155.542 35.938 154.59 36.328 Q 153.638 36.719 152.637 36.719 Q 151.588 36.719 150.939 36.268 A 2.054 2.054 0 0 1 150.488 35.84 Q 149.822 34.983 149.805 33.64 A 5.586 5.586 0 0 1 149.805 33.569 A 3.092 3.092 0 0 1 149.805 33.516 Q 149.807 33.427 149.813 33.255 A 49.25 49.25 0 0 1 149.817 33.142 A 4.305 4.305 0 0 1 149.828 32.949 Q 149.843 32.765 149.874 32.635 A 1.239 1.239 0 0 1 149.878 32.617 A 26.326 26.326 0 0 1 148.832 33.859 Q 148.337 34.409 147.861 34.864 A 14.618 14.618 0 0 1 147.546 35.156 Q 146.477 36.12 145.476 36.699 A 8.839 8.839 0 0 1 145.398 36.743 A 8.999 8.999 0 0 1 144.379 37.241 A 6.814 6.814 0 0 1 143.396 37.561 A 8.449 8.449 0 0 1 142.224 37.76 A 7.06 7.06 0 0 1 141.553 37.793 A 5.012 5.012 0 0 1 140.039 37.568 A 4.701 4.701 0 0 1 139.807 37.488 A 4.243 4.243 0 0 1 138.367 36.597 A 4.035 4.035 0 0 1 137.486 35.372 A 4.734 4.734 0 0 1 137.39 35.156 A 4.523 4.523 0 0 1 137.104 34.11 A 6.118 6.118 0 0 1 137.036 33.179 Q 137.036 31.787 137.659 29.993 Q 138.169 28.523 139.326 26.864 A 21.064 21.064 0 0 1 139.868 26.123 A 20.357 20.357 0 0 1 141.37 24.342 A 15.948 15.948 0 0 1 142.664 23.12 A 18.716 18.716 0 0 1 144.193 21.958 A 14.327 14.327 0 0 1 145.52 21.155 A 13.818 13.818 0 0 1 146.89 20.517 A 10.305 10.305 0 0 1 148.193 20.093 A 11.918 11.918 0 0 1 149.235 19.879 Q 149.749 19.798 150.21 19.78 A 6.64 6.64 0 0 1 150.464 19.775 A 10.847 10.847 0 0 1 151.701 19.841 Q 152.979 19.988 153.771 20.466 A 3.127 3.127 0 0 1 153.857 20.52 A 3.017 3.017 0 0 1 155.126 22.254 A 4.269 4.269 0 0 1 155.249 22.803 Q 155.737 22.192 156.274 21.582 Q 156.812 20.972 157.373 20.337 Z M 208.545 27.808 A 21.54 21.54 0 0 0 208.337 28.134 Q 208.098 28.517 207.813 29.004 A 39.473 39.473 0 0 1 207.489 29.545 A 47.491 47.491 0 0 1 206.897 30.493 Q 206.397 31.275 205.823 32.056 A 11.391 11.391 0 0 1 205.587 32.366 A 9.962 9.962 0 0 1 204.602 33.447 A 7.757 7.757 0 0 1 204.234 33.773 A 6.541 6.541 0 0 1 203.259 34.448 A 3.431 3.431 0 0 1 203.238 34.46 A 2.922 2.922 0 0 1 201.807 34.839 Q 201.074 34.839 200.647 34.302 A 1.342 1.342 0 0 1 200.483 34.031 Q 200.304 33.645 200.246 33.016 A 7.144 7.144 0 0 1 200.22 32.373 A 8.295 8.295 0 0 1 200.228 32.002 Q 200.243 31.678 200.282 31.308 A 17.298 17.298 0 0 1 200.378 30.554 A 14.178 14.178 0 0 1 200.466 30.036 Q 200.632 29.155 200.94 28.052 A 27.499 27.499 0 0 1 201.059 27.639 Q 201.246 27.007 201.486 26.304 A 49.945 49.945 0 0 1 202.039 24.768 A 46.669 46.669 0 0 1 202.242 24.24 Q 202.885 22.595 203.809 20.581 A 44.195 44.195 0 0 1 204.351 19.427 A 52.984 52.984 0 0 1 205.383 17.42 A 115.495 115.495 0 0 1 207.214 14.16 Q 208.154 12.549 209.094 11.035 A 202.217 202.217 0 0 1 210.001 9.589 A 153.626 153.626 0 0 1 210.84 8.276 Q 211.646 7.031 212.256 6.128 A 582.822 582.822 0 0 1 212.35 5.988 Q 212.742 5.409 212.979 5.061 A 79.858 79.858 0 0 1 213.135 4.834 L 212.085 4.15 A 38.828 38.828 0 0 0 211.78 4.471 A 42.912 42.912 0 0 0 209.68 6.885 Q 208.496 8.35 207.422 9.851 Q 206.348 11.353 205.396 12.83 A 109.185 109.185 0 0 0 204.486 14.264 A 88.017 88.017 0 0 0 203.662 15.613 A 108.606 108.606 0 0 0 203.612 15.697 Q 202.862 16.953 202.295 17.981 Q 201.856 18.778 201.553 19.361 A 29.361 29.361 0 0 0 201.367 19.727 A 2.646 2.646 0 0 0 201.346 19.709 Q 201.031 19.449 200.522 19.19 A 9.11 9.11 0 0 0 200 18.945 A 3.088 3.088 0 0 0 199.979 18.937 Q 199.079 18.555 197.51 18.555 A 7.251 7.251 0 0 0 196.314 18.658 A 9.449 9.449 0 0 0 194.959 18.994 A 12.267 12.267 0 0 0 194.24 19.253 A 13.983 13.983 0 0 0 192.261 20.227 A 14.105 14.105 0 0 0 191.761 20.537 A 15.598 15.598 0 0 0 189.685 22.156 A 14.509 14.509 0 0 0 187.5 24.695 A 12.781 12.781 0 0 0 185.986 27.734 Q 185.425 29.37 185.425 31.177 Q 185.425 32.008 185.574 32.699 A 4.718 4.718 0 0 0 185.986 33.875 A 6.233 6.233 0 0 0 186.384 34.542 A 4.919 4.919 0 0 0 187.378 35.62 A 5.806 5.806 0 0 0 187.64 35.817 A 4.973 4.973 0 0 0 189.148 36.548 A 8.712 8.712 0 0 0 189.265 36.58 Q 189.672 36.691 190.048 36.749 A 5.331 5.331 0 0 0 190.869 36.816 Q 192.407 36.816 194.141 35.803 Q 195.874 34.79 197.705 32.813 A 6.168 6.168 0 0 0 197.743 33.074 Q 197.806 33.457 197.913 33.783 A 3.286 3.286 0 0 0 198.218 34.461 A 3.983 3.983 0 0 0 198.557 34.942 A 2.99 2.99 0 0 0 199.121 35.474 A 3.21 3.21 0 0 0 200.232 35.986 A 5.455 5.455 0 0 0 200.672 36.076 A 4.423 4.423 0 0 0 201.367 36.133 A 5.56 5.56 0 0 0 201.402 36.133 A 4.852 4.852 0 0 0 203.455 35.681 A 7.236 7.236 0 0 0 205.212 34.522 Q 206.006 33.814 206.665 32.947 A 20.992 20.992 0 0 0 206.986 32.514 A 18.364 18.364 0 0 0 207.837 31.226 A 69.245 69.245 0 0 0 208.322 30.405 A 52.206 52.206 0 0 0 208.752 29.651 Q 209.055 29.111 209.281 28.729 A 20.692 20.692 0 0 1 209.424 28.491 A 0.011 0.011 0 0 1 209.424 28.489 Q 209.434 28.45 209.68 28.04 A 85.989 85.989 0 0 1 209.736 27.947 Q 209.979 27.543 210.339 26.953 A 202.788 202.788 0 0 1 210.767 26.257 A 275.722 275.722 0 0 1 211.243 25.488 A 135.132 135.132 0 0 1 212.244 23.901 A 106.481 106.481 0 0 1 212.729 23.151 A 84.041 84.041 0 0 1 213.184 22.461 Q 213.623 21.802 213.94 21.46 L 213.94 21.509 A 2.209 2.209 0 0 0 213.943 21.596 Q 213.949 21.762 213.978 22.09 A 36.193 36.193 0 0 0 214.002 22.351 A 116.103 116.103 0 0 1 214.041 22.777 Q 214.061 23.001 214.083 23.246 A 206.157 206.157 0 0 1 214.136 23.865 Q 214.209 24.732 214.27 25.684 A 31.651 31.651 0 0 1 214.316 26.593 A 23.462 23.462 0 0 1 214.331 27.417 A 14.677 14.677 0 0 1 214.307 28.241 A 19.9 19.9 0 0 1 214.233 29.15 A 14.47 14.47 0 0 1 214.2 29.449 A 16.059 16.059 0 0 1 213.904 31.104 Q 213.672 32.105 213.281 33.045 A 8.34 8.34 0 0 1 213.075 33.502 A 7.127 7.127 0 0 1 212.329 34.717 A 4.668 4.668 0 0 1 211.011 35.901 A 3.091 3.091 0 0 1 210.293 36.214 A 3.595 3.595 0 0 1 209.277 36.353 A 4.166 4.166 0 0 1 209.115 36.35 Q 208.831 36.338 208.584 36.288 A 2.265 2.265 0 0 1 208.044 36.108 Q 207.786 35.983 207.584 35.837 A 2.17 2.17 0 0 1 207.251 35.547 A 2.581 2.581 0 0 1 207.025 35.267 A 1.913 1.913 0 0 1 206.824 34.9 A 4.432 4.432 0 0 1 206.815 34.878 Q 206.722 34.646 206.698 34.509 A 0.5 0.5 0 0 1 206.689 34.424 L 205.811 34.595 A 4.986 4.986 0 0 0 205.985 35.312 A 3.552 3.552 0 0 0 207.361 37.195 Q 208.618 38.062 210.449 38.062 A 9.179 9.179 0 0 0 214.331 37.219 Q 216.162 36.377 217.749 35.022 A 21.197 21.197 0 0 0 220.667 31.97 A 37.709 37.709 0 0 0 220.995 31.546 A 34.269 34.269 0 0 0 223.047 28.54 L 222.217 27.808 Q 220.361 30.762 218.53 32.678 A 17.991 17.991 0 0 1 216.798 34.279 A 13.192 13.192 0 0 1 214.795 35.62 A 7.884 7.884 0 0 0 215.561 34.507 A 9.803 9.803 0 0 0 216.284 32.91 A 9.461 9.461 0 0 0 216.722 31.086 A 13.033 13.033 0 0 0 216.846 29.248 A 14.488 14.488 0 0 0 216.589 26.502 A 45.389 45.389 0 0 0 216.324 25.22 A 36.535 36.535 0 0 0 216.04 24.036 A 91.713 91.713 0 0 0 215.958 23.722 Q 215.837 23.258 215.722 22.84 A 54.675 54.675 0 0 0 215.491 22.022 Q 215.315 21.417 215.259 20.986 A 2.833 2.833 0 0 1 215.234 20.63 Q 215.234 20.287 215.277 19.997 A 2.841 2.841 0 0 1 215.369 19.58 A 4.661 4.661 0 0 1 215.505 19.192 A 3.459 3.459 0 0 1 215.686 18.811 A 5.554 5.554 0 0 1 215.849 18.537 A 4.387 4.387 0 0 1 216.064 18.225 A 5.502 5.502 0 0 0 216.115 18.158 Q 216.189 18.058 216.251 17.963 A 3.289 3.289 0 0 0 216.382 17.749 L 215.405 16.943 A 82.613 82.613 0 0 0 212.891 20.667 Q 211.67 22.583 210.706 24.158 A 179.724 179.724 0 0 0 210.506 24.484 Q 209.911 25.461 209.472 26.211 A 60.993 60.993 0 0 0 209.155 26.758 A 253.21 253.21 0 0 1 209.015 27.003 Q 208.566 27.786 208.545 27.808 L 209.424 28.491 L 208.545 27.808 Q 208.566 27.786 209.015 27.003 M 11.035 27.808 A 406.53 406.53 0 0 1 9.229 30.566 A 24.835 24.835 0 0 1 8.517 31.588 A 19.99 19.99 0 0 1 7.385 32.996 A 14.605 14.605 0 0 1 7.371 33.012 Q 6.908 33.533 6.442 33.957 A 9.183 9.183 0 0 1 5.493 34.717 A 4.193 4.193 0 0 1 4.954 35.036 A 3.178 3.178 0 0 1 3.54 35.376 A 2.024 2.024 0 0 1 3.378 35.37 Q 3.207 35.356 3.064 35.312 A 0.96 0.96 0 0 1 2.71 35.12 Q 2.49 34.927 2.435 34.481 A 2.677 2.677 0 0 1 2.417 34.155 Q 2.417 33.374 2.759 32.251 A 20.684 20.684 0 0 1 3.153 31.088 A 26.782 26.782 0 0 1 3.65 29.846 A 42.473 42.473 0 0 1 3.933 29.201 A 48.248 48.248 0 0 1 4.883 27.21 Q 5.566 25.855 6.226 24.622 Q 6.885 23.389 7.459 22.351 A 82.664 82.664 0 0 0 7.713 21.887 Q 7.978 21.401 8.175 21.021 A 26.056 26.056 0 0 0 8.35 20.679 L 7.568 20.337 A 217.833 217.833 0 0 0 6.393 21.729 A 288.576 288.576 0 0 0 5.115 23.267 A 36.647 36.647 0 0 0 2.649 26.624 A 25.268 25.268 0 0 0 2.337 27.115 A 22.524 22.524 0 0 0 0.757 30.151 A 10.343 10.343 0 0 0 0.281 31.521 A 7.913 7.913 0 0 0 0 33.569 Q 0 34.961 0.781 35.84 A 2.527 2.527 0 0 0 2.12 36.62 A 3.899 3.899 0 0 0 3.027 36.719 Q 4.59 36.719 5.908 35.913 A 10.028 10.028 0 0 0 6.315 35.651 A 10.894 10.894 0 0 0 8.325 33.875 A 19.159 19.159 0 0 0 10.315 31.201 A 78.179 78.179 0 0 0 11.16 29.804 A 62.167 62.167 0 0 0 11.914 28.491 A 24.545 24.545 0 0 0 11.988 28.38 Q 12.22 28.028 12.523 27.544 A 77.238 77.238 0 0 0 12.769 27.149 A 189.753 189.753 0 0 1 13.3 26.294 A 226.292 226.292 0 0 1 13.867 25.391 A 56.639 56.639 0 0 1 15.1 23.523 A 23.458 23.458 0 0 1 15.664 22.738 A 18.634 18.634 0 0 1 16.382 21.838 Q 17.017 21.094 17.615 20.618 Q 17.989 20.32 18.31 20.209 A 1.119 1.119 0 0 1 18.677 20.142 Q 18.897 20.142 19.067 20.194 A 0.809 0.809 0 0 1 19.36 20.349 A 0.489 0.489 0 0 1 19.466 20.48 Q 19.562 20.645 19.591 20.932 A 2.775 2.775 0 0 1 19.605 21.216 Q 19.605 21.619 19.477 22.202 A 10.323 10.323 0 0 1 19.336 22.766 A 7.077 7.077 0 0 1 19.324 22.809 Q 19.052 23.763 18.359 25.195 A 55.322 55.322 0 0 1 18.236 25.44 A 61.331 61.331 0 0 1 17.31 27.197 Q 16.748 28.223 16.126 29.236 Q 15.503 30.249 14.868 31.201 A 52.688 52.688 0 0 1 14.474 31.784 A 45.064 45.064 0 0 1 13.623 32.983 L 10.767 36.914 L 12.915 37.793 A 17.617 17.617 0 0 0 12.999 37.687 Q 13.127 37.525 13.268 37.339 A 32.295 32.295 0 0 0 13.574 36.926 A 78.914 78.914 0 0 1 13.953 36.414 A 92.291 92.291 0 0 1 14.356 35.877 A 131.587 131.587 0 0 0 15.186 34.766 Q 15.601 34.204 16.016 33.667 A 242.665 242.665 0 0 0 16.254 33.354 A 267.967 267.967 0 0 0 17.969 31.079 A 149.256 149.256 0 0 1 19.663 28.885 A 108.963 108.963 0 0 1 21.228 26.941 A 56.593 56.593 0 0 1 21.646 26.441 Q 22.265 25.708 22.844 25.076 A 31.33 31.33 0 0 1 23.999 23.877 A 21.692 21.692 0 0 1 24.628 23.283 Q 25.076 22.878 25.491 22.554 A 9.93 9.93 0 0 1 26.294 21.985 A 5.825 5.825 0 0 1 26.842 21.677 Q 27.161 21.521 27.453 21.437 A 2.341 2.341 0 0 1 28.101 21.338 A 1.904 1.904 0 0 1 28.305 21.349 A 1.312 1.312 0 0 1 29.236 21.851 Q 29.639 22.363 29.639 23.12 A 2.484 2.484 0 0 1 29.593 23.576 Q 29.545 23.834 29.446 24.122 A 5.964 5.964 0 0 1 29.211 24.695 Q 28.784 25.61 28.149 26.685 Q 27.515 27.759 26.758 28.943 Q 26.001 30.127 25.366 31.299 A 21.949 21.949 0 0 0 24.99 32.025 A 18.509 18.509 0 0 0 24.304 33.582 Q 23.877 34.692 23.877 35.645 Q 23.877 36.231 24.097 36.755 Q 24.316 37.28 24.695 37.671 A 2.531 2.531 0 0 0 24.868 37.834 A 2.713 2.713 0 0 0 25.61 38.281 A 2.832 2.832 0 0 0 26.104 38.432 A 3.426 3.426 0 0 0 26.807 38.501 A 4.107 4.107 0 0 0 27.951 38.336 A 5.07 5.07 0 0 0 29.089 37.842 A 10.833 10.833 0 0 0 29.932 37.298 A 12.9 12.9 0 0 0 31.299 36.17 A 19.52 19.52 0 0 0 33.313 33.948 A 51.659 51.659 0 0 0 33.992 33.055 A 42.542 42.542 0 0 0 35.01 31.629 A 49.794 49.794 0 0 0 35.459 30.958 Q 35.672 30.635 35.86 30.335 A 28.311 28.311 0 0 0 36.279 29.651 Q 36.792 28.784 36.987 28.491 L 36.108 27.808 Q 35.156 29.273 33.984 30.908 A 51.34 51.34 0 0 1 33.389 31.723 A 44.438 44.438 0 0 1 31.628 33.936 Q 31.036 34.631 30.454 35.208 A 14.575 14.575 0 0 1 29.297 36.243 A 5.996 5.996 0 0 1 28.667 36.686 Q 27.888 37.158 27.222 37.158 A 0.817 0.817 0 0 1 26.966 37.118 A 0.895 0.895 0 0 1 26.685 36.963 Q 26.501 36.816 26.456 36.464 A 2.011 2.011 0 0 1 26.44 36.206 Q 26.44 35.474 26.807 34.583 Q 27.173 33.691 27.734 32.715 A 97.216 97.216 0 0 1 28.02 32.222 A 110.598 110.598 0 0 1 28.931 30.689 A 36.653 36.653 0 0 0 30.127 28.552 A 17.066 17.066 0 0 0 30.231 28.349 A 15.413 15.413 0 0 0 31.055 26.379 A 7.562 7.562 0 0 0 31.179 25.973 A 6.491 6.491 0 0 0 31.421 24.243 Q 31.421 22.949 31.043 22.131 Q 30.859 21.735 30.639 21.422 A 3.14 3.14 0 0 0 30.127 20.85 A 3.488 3.488 0 0 0 29.854 20.636 A 2.851 2.851 0 0 0 28.98 20.215 A 5.926 5.926 0 0 0 28.764 20.159 Q 28.285 20.044 27.905 20.044 Q 27.603 20.044 27.262 20.098 A 5.885 5.885 0 0 0 26.709 20.215 Q 26.338 20.311 25.929 20.481 A 8.742 8.742 0 0 0 25.269 20.789 Q 24.829 21.015 24.343 21.331 A 16.17 16.17 0 0 0 23.56 21.875 A 13.576 13.576 0 0 0 23.296 22.075 Q 22.896 22.385 22.47 22.76 A 24.064 24.064 0 0 0 21.558 23.608 A 7.052 7.052 0 0 0 21.622 23.27 A 6.063 6.063 0 0 0 21.704 22.29 A 5.869 5.869 0 0 0 21.704 22.266 Q 21.701 21.475 21.484 20.874 A 3.668 3.668 0 0 0 21.332 20.511 A 2.971 2.971 0 0 0 20.886 19.837 A 2.516 2.516 0 0 0 20.007 19.19 Q 19.507 18.97 18.97 18.97 A 2.988 2.988 0 0 0 18.026 19.122 A 3.465 3.465 0 0 0 17.078 19.617 A 6.783 6.783 0 0 0 16.693 19.919 Q 15.985 20.516 15.247 21.436 Q 14.307 22.608 13.293 24.231 Q 12.28 25.855 11.035 27.808 L 11.914 28.491 L 11.035 27.808 Q 12.28 25.855 13.293 24.231 M 124.072 20.85 L 121.094 27.368 A 35.348 35.348 0 0 1 123.347 24.602 A 31.75 31.75 0 0 1 123.779 24.133 A 24.693 24.693 0 0 1 125.517 22.454 A 20.242 20.242 0 0 1 126.587 21.582 A 15.371 15.371 0 0 1 128.081 20.575 A 11.943 11.943 0 0 1 129.382 19.91 A 7.524 7.524 0 0 1 130.803 19.447 A 5.986 5.986 0 0 1 132.056 19.312 A 4.747 4.747 0 0 1 132.66 19.348 Q 132.971 19.388 133.232 19.472 A 2.365 2.365 0 0 1 133.508 19.58 A 2.753 2.753 0 0 1 134.007 19.878 A 2.142 2.142 0 0 1 134.412 20.276 Q 134.741 20.703 134.876 21.216 Q 135.01 21.729 135.01 22.241 A 4.844 4.844 0 0 1 134.906 23.213 A 6.617 6.617 0 0 1 134.644 24.133 A 18.354 18.354 0 0 1 134.114 25.433 A 22.344 22.344 0 0 1 133.728 26.245 A 60.278 60.278 0 0 1 132.701 28.205 A 66.442 66.442 0 0 1 132.544 28.491 A 61.775 61.775 0 0 0 131.499 30.462 A 55.973 55.973 0 0 0 131.36 30.737 A 19.719 19.719 0 0 0 130.691 32.219 A 16.721 16.721 0 0 0 130.444 32.874 A 6.893 6.893 0 0 0 130.182 33.817 A 5.096 5.096 0 0 0 130.078 34.815 A 2.154 2.154 0 0 0 130.335 35.852 A 0.864 0.864 0 0 0 130.959 36.301 A 1.476 1.476 0 0 0 131.25 36.328 A 1.865 1.865 0 0 0 131.906 36.2 Q 132.414 36.009 132.983 35.535 A 11.652 11.652 0 0 0 133.884 34.694 Q 134.399 34.163 134.924 33.508 A 32.344 32.344 0 0 0 136.16 31.858 A 39.553 39.553 0 0 0 136.902 30.762 A 82.999 82.999 0 0 0 138.31 28.533 A 73.957 73.957 0 0 0 138.745 27.808 L 139.624 28.491 A 5.448 5.448 0 0 0 139.478 28.703 Q 139.24 29.062 138.892 29.675 Q 138.428 30.493 137.805 31.506 Q 137.183 32.52 136.414 33.594 Q 135.645 34.668 134.778 35.559 A 9.701 9.701 0 0 1 133.661 36.549 A 8.225 8.225 0 0 1 132.959 37.024 Q 132.007 37.598 131.03 37.598 A 5.629 5.629 0 0 1 129.761 37.451 A 2.975 2.975 0 0 1 128.613 36.914 Q 128.101 36.524 127.783 35.852 A 3.023 3.023 0 0 1 127.566 35.197 Q 127.497 34.877 127.476 34.505 A 6.048 6.048 0 0 1 127.466 34.155 A 7.636 7.636 0 0 1 127.753 32.111 A 8.805 8.805 0 0 1 127.869 31.726 Q 128.272 30.493 128.87 29.285 Q 129.468 28.076 130.176 26.941 A 146.416 146.416 0 0 0 130.856 25.839 A 119.153 119.153 0 0 0 131.482 24.805 Q 131.996 23.945 132.366 23.22 A 18.668 18.668 0 0 0 132.483 22.986 A 5.405 5.405 0 0 0 132.695 22.5 Q 132.883 22.001 132.886 21.619 A 1.581 1.581 0 0 0 132.886 21.607 A 1.483 1.483 0 0 0 132.839 21.217 Q 132.717 20.77 132.277 20.65 A 1.397 1.397 0 0 0 131.909 20.606 A 4.83 4.83 0 0 0 130.432 20.849 Q 129.718 21.078 128.967 21.521 A 15.987 15.987 0 0 0 127.219 22.725 A 20.788 20.788 0 0 0 125.855 23.901 A 35.046 35.046 0 0 0 123.586 26.244 A 40.74 40.74 0 0 0 122.778 27.185 A 72.476 72.476 0 0 0 120.029 30.698 A 66.61 66.61 0 0 0 119.946 30.811 L 116.235 37.793 L 114.014 36.914 A 728.548 728.548 0 0 0 119.983 23.547 A 488.334 488.334 0 0 1 125.879 10.498 A 39.092 39.092 0 0 1 126.382 9.454 A 51.55 51.55 0 0 1 126.965 8.325 Q 127.588 7.153 128.308 5.982 Q 129.028 4.81 129.858 3.735 A 17.445 17.445 0 0 1 130.969 2.431 A 14.668 14.668 0 0 1 131.567 1.831 A 9.104 9.104 0 0 1 132.661 0.942 A 7.54 7.54 0 0 1 133.386 0.501 A 4.337 4.337 0 0 1 134.446 0.096 A 3.676 3.676 0 0 1 135.278 0 Q 136.353 0 136.951 0.598 Q 137.549 1.196 137.549 2.295 A 5.213 5.213 0 0 1 137.432 3.357 Q 137.282 4.078 136.939 4.895 Q 136.328 6.348 135.303 7.959 A 36.691 36.691 0 0 1 133.892 10.011 A 44.754 44.754 0 0 1 132.922 11.279 A 76.994 76.994 0 0 1 130.066 14.673 A 97.647 97.647 0 0 1 127.026 17.932 A 116.269 116.269 0 0 1 125.151 19.81 A 96.961 96.961 0 0 1 124.072 20.85 Z M 53.442 22.07 L 54.761 20.337 L 55.566 20.874 A 0.074 0.074 0 0 1 55.56 20.891 Q 55.518 20.992 55.176 21.643 Q 54.785 22.388 54.15 23.633 A 512.343 512.343 0 0 0 53.645 24.627 Q 53.422 25.066 53.18 25.547 A 907.017 907.017 0 0 0 52.673 26.55 A 273.593 273.593 0 0 0 51.813 28.275 A 322.812 322.812 0 0 0 50.916 30.103 A 301.467 301.467 0 0 0 49.119 33.859 A 329.316 329.316 0 0 0 49.06 33.984 A 197.272 197.272 0 0 0 47.266 37.915 Q 49.487 36.646 51.172 35.474 A 33.477 33.477 0 0 0 53.094 34.036 A 27.243 27.243 0 0 0 54.187 33.106 Q 55.518 31.909 56.592 30.615 A 31.489 31.489 0 0 0 58.289 28.368 A 35.343 35.343 0 0 0 58.667 27.808 L 59.57 28.491 Q 58.594 30.078 57.459 31.433 A 22.478 22.478 0 0 1 55.887 33.117 A 27.578 27.578 0 0 1 54.797 34.119 A 34.075 34.075 0 0 1 53.143 35.468 A 46.062 46.062 0 0 1 51.233 36.853 A 73.214 73.214 0 0 1 49.302 38.135 Q 47.966 38.994 46.387 39.941 A 108.212 108.212 0 0 1 44.671 43.931 Q 43.796 45.854 42.946 47.479 A 51.182 51.182 0 0 1 41.919 49.353 Q 39.771 53.076 37.854 55.249 Q 35.938 57.422 34.29 58.301 A 9.248 9.248 0 0 1 33.196 58.801 Q 32.6 59.025 32.053 59.117 A 4.421 4.421 0 0 1 31.323 59.18 Q 30.786 59.18 30.164 59.046 Q 29.541 58.911 29.004 58.521 A 2.792 2.792 0 0 1 28.365 57.863 A 3.581 3.581 0 0 1 28.113 57.446 Q 27.824 56.889 27.771 56.072 A 5.893 5.893 0 0 1 27.759 55.689 A 8.106 8.106 0 0 1 28.422 52.514 A 9.937 9.937 0 0 1 28.845 51.636 Q 29.864 49.759 31.741 47.904 A 23.03 23.03 0 0 1 31.995 47.656 A 29.358 29.358 0 0 1 34.28 45.693 Q 35.547 44.706 37.048 43.726 A 70.988 70.988 0 0 1 40.237 41.766 A 92.768 92.768 0 0 1 43.823 39.795 A 106.96 106.96 0 0 0 44.269 38.773 A 89.349 89.349 0 0 0 44.678 37.805 A 115.696 115.696 0 0 1 45.056 36.905 A 88.753 88.753 0 0 1 45.41 36.084 Q 44.141 36.939 42.786 37.463 A 8.067 8.067 0 0 1 41.377 37.873 A 6.382 6.382 0 0 1 40.186 37.988 A 6.645 6.645 0 0 1 38.33 37.72 A 4.672 4.672 0 0 1 36.646 36.829 Q 35.889 36.206 35.413 35.181 A 4.761 4.761 0 0 1 35.073 34.122 Q 34.971 33.619 34.945 33.038 A 9.022 9.022 0 0 1 34.937 32.642 A 9.563 9.563 0 0 1 35.596 29.126 Q 36.255 27.441 37.354 25.989 A 16.452 16.452 0 0 1 39.868 23.34 A 19.103 19.103 0 0 1 42.226 21.63 A 17.194 17.194 0 0 1 42.786 21.301 Q 44.287 20.459 45.776 19.995 A 11.351 11.351 0 0 1 47.028 19.678 Q 47.679 19.554 48.27 19.535 A 6.616 6.616 0 0 1 48.486 19.531 A 9.431 9.431 0 0 1 49.334 19.567 Q 49.999 19.627 50.525 19.788 A 6.924 6.924 0 0 1 51.213 20.035 Q 51.571 20.187 51.868 20.369 A 4.121 4.121 0 0 1 51.953 20.422 A 4.486 4.486 0 0 1 52.434 20.778 Q 52.694 21 52.881 21.24 A 8.031 8.031 0 0 1 53.183 21.655 Q 53.325 21.862 53.435 22.058 A 4.932 4.932 0 0 1 53.442 22.07 Z M 121.314 4.15 L 122.363 4.834 A 79.858 79.858 0 0 0 122.208 5.061 Q 121.97 5.409 121.579 5.988 A 582.822 582.822 0 0 0 121.484 6.128 Q 120.874 7.031 120.068 8.276 A 153.626 153.626 0 0 0 119.229 9.589 A 202.217 202.217 0 0 0 118.323 11.035 Q 117.383 12.549 116.443 14.16 A 115.495 115.495 0 0 0 114.612 17.42 A 52.984 52.984 0 0 0 113.579 19.427 A 44.195 44.195 0 0 0 113.037 20.581 Q 112.114 22.595 111.47 24.24 A 46.669 46.669 0 0 0 111.267 24.768 A 49.945 49.945 0 0 0 110.714 26.304 Q 110.475 27.007 110.288 27.639 A 27.499 27.499 0 0 0 110.168 28.052 Q 109.86 29.155 109.695 30.036 A 14.178 14.178 0 0 0 109.607 30.554 A 17.298 17.298 0 0 0 109.51 31.308 Q 109.472 31.678 109.457 32.002 A 8.295 8.295 0 0 0 109.448 32.373 A 7.144 7.144 0 0 0 109.475 33.016 Q 109.532 33.645 109.711 34.031 A 1.342 1.342 0 0 0 109.876 34.302 Q 110.303 34.839 111.035 34.839 A 2.922 2.922 0 0 0 112.466 34.46 A 3.431 3.431 0 0 0 112.488 34.448 A 6.541 6.541 0 0 0 113.463 33.773 A 7.757 7.757 0 0 0 113.831 33.447 A 9.962 9.962 0 0 0 114.815 32.366 A 11.391 11.391 0 0 0 115.051 32.056 Q 115.625 31.275 116.126 30.493 A 47.491 47.491 0 0 0 116.718 29.545 A 39.473 39.473 0 0 0 117.041 29.004 Q 117.326 28.517 117.566 28.134 A 21.54 21.54 0 0 1 117.773 27.808 L 118.652 28.491 A 20.692 20.692 0 0 0 118.51 28.729 Q 118.283 29.111 117.981 29.651 A 52.206 52.206 0 0 1 117.551 30.405 A 69.245 69.245 0 0 1 117.065 31.226 A 18.364 18.364 0 0 1 116.214 32.514 A 20.992 20.992 0 0 1 115.894 32.947 Q 115.234 33.814 114.441 34.522 A 7.236 7.236 0 0 1 112.683 35.681 A 4.852 4.852 0 0 1 110.631 36.133 A 5.56 5.56 0 0 1 110.596 36.133 A 4.423 4.423 0 0 1 109.901 36.076 A 5.455 5.455 0 0 1 109.46 35.986 A 3.21 3.21 0 0 1 108.35 35.474 A 2.99 2.99 0 0 1 107.786 34.942 A 3.983 3.983 0 0 1 107.446 34.461 A 3.286 3.286 0 0 1 107.141 33.783 Q 107.035 33.457 106.971 33.074 A 6.168 6.168 0 0 1 106.934 32.813 Q 105.103 34.79 103.369 35.803 Q 101.636 36.816 100.098 36.816 A 5.331 5.331 0 0 1 99.277 36.749 Q 98.9 36.691 98.493 36.58 A 8.712 8.712 0 0 1 98.377 36.548 A 4.973 4.973 0 0 1 96.869 35.817 A 5.806 5.806 0 0 1 96.606 35.62 A 4.919 4.919 0 0 1 95.612 34.542 A 6.233 6.233 0 0 1 95.215 33.875 A 4.718 4.718 0 0 1 94.803 32.699 Q 94.653 32.008 94.653 31.177 Q 94.653 29.37 95.215 27.734 A 12.781 12.781 0 0 1 96.729 24.695 A 14.509 14.509 0 0 1 98.914 22.156 A 15.598 15.598 0 0 1 100.99 20.537 A 14.105 14.105 0 0 1 101.489 20.227 A 13.983 13.983 0 0 1 103.468 19.253 A 12.267 12.267 0 0 1 104.187 18.994 A 9.449 9.449 0 0 1 105.542 18.658 A 7.251 7.251 0 0 1 106.738 18.555 Q 108.307 18.555 109.208 18.937 A 3.088 3.088 0 0 1 109.229 18.945 A 9.11 9.11 0 0 1 109.75 19.19 Q 110.259 19.449 110.574 19.709 A 2.646 2.646 0 0 1 110.596 19.727 A 29.361 29.361 0 0 1 110.782 19.361 Q 111.084 18.778 111.523 17.981 Q 112.091 16.953 112.841 15.697 A 108.606 108.606 0 0 1 112.891 15.613 A 88.017 88.017 0 0 1 113.715 14.264 A 109.185 109.185 0 0 1 114.624 12.83 Q 115.576 11.353 116.65 9.851 Q 117.725 8.35 118.909 6.885 A 42.912 42.912 0 0 1 121.009 4.471 A 38.828 38.828 0 0 1 121.314 4.15 Z M 76.904 27.808 L 77.783 28.491 A 10.627 10.627 0 0 1 76.969 29.514 Q 76.527 30 76.075 30.35 A 4.941 4.941 0 0 1 75.366 30.811 A 5.556 5.556 0 0 1 72.73 31.47 Q 72.262 31.47 71.896 31.389 A 2.69 2.69 0 0 1 71.826 31.372 A 18.36 18.36 0 0 1 70.669 33.092 A 14.092 14.092 0 0 1 69.58 34.363 A 14.684 14.684 0 0 1 68.224 35.603 A 11.616 11.616 0 0 1 67.139 36.377 A 10.794 10.794 0 0 1 65.746 37.121 A 8.677 8.677 0 0 1 64.673 37.512 Q 63.452 37.866 62.402 37.866 A 5.353 5.353 0 0 1 60.97 37.679 A 4.82 4.82 0 0 1 60.413 37.488 A 4.442 4.442 0 0 1 58.838 36.401 A 4.956 4.956 0 0 1 57.909 34.957 A 5.751 5.751 0 0 1 57.813 34.717 A 5.693 5.693 0 0 1 57.498 33.401 A 7.298 7.298 0 0 1 57.446 32.52 A 8.234 8.234 0 0 1 57.704 30.504 A 9.508 9.508 0 0 1 57.837 30.029 A 13.818 13.818 0 0 1 58.796 27.709 A 15.328 15.328 0 0 1 58.899 27.515 A 17.182 17.182 0 0 1 60.474 25.11 A 19.747 19.747 0 0 1 62.427 22.949 Q 63.477 21.948 64.6 21.143 A 14.258 14.258 0 0 1 66.074 20.211 A 12.055 12.055 0 0 1 66.846 19.824 L 67.627 20.85 A 15.677 15.677 0 0 0 66.324 21.9 A 21.16 21.16 0 0 0 65.002 23.193 A 21.65 21.65 0 0 0 62.585 26.294 Q 61.499 27.979 60.803 29.797 Q 60.107 31.616 60.107 33.325 Q 60.107 34.863 60.791 35.706 Q 61.444 36.51 62.742 36.546 A 4.443 4.443 0 0 0 62.866 36.548 A 5.438 5.438 0 0 0 64.921 36.137 A 6.207 6.207 0 0 0 64.99 36.108 A 9.12 9.12 0 0 0 66.538 35.271 A 10.659 10.659 0 0 0 67.041 34.912 A 13.021 13.021 0 0 0 68.442 33.679 A 15.277 15.277 0 0 0 68.97 33.118 A 24.927 24.927 0 0 0 70.728 30.908 A 4.298 4.298 0 0 1 69.585 29.925 A 4.944 4.944 0 0 1 69.482 29.797 A 6.62 6.62 0 0 1 68.748 28.591 A 7.689 7.689 0 0 1 68.579 28.211 Q 68.213 27.319 68.03 26.294 A 11.921 11.921 0 0 1 67.847 24.194 A 7.667 7.667 0 0 1 67.998 22.652 A 6.842 6.842 0 0 1 68.115 22.168 A 6.485 6.485 0 0 1 68.495 21.145 A 5.292 5.292 0 0 1 68.86 20.496 A 4.271 4.271 0 0 1 69.445 19.783 A 3.519 3.519 0 0 1 69.971 19.36 Q 70.606 18.945 71.362 18.945 A 2.251 2.251 0 0 1 72.187 19.094 A 2.112 2.112 0 0 1 72.583 19.299 A 2.78 2.78 0 0 1 73.293 19.981 A 3.426 3.426 0 0 1 73.486 20.276 Q 73.853 20.899 74.048 21.753 A 7.836 7.836 0 0 1 74.228 23.044 A 9.272 9.272 0 0 1 74.243 23.584 Q 74.243 24.316 74.121 25.195 A 15.478 15.478 0 0 1 73.767 26.965 Q 73.535 27.857 73.206 28.723 A 9.021 9.021 0 0 1 72.763 29.712 A 7.406 7.406 0 0 1 72.437 30.274 A 0.803 0.803 0 0 0 72.632 30.298 L 72.852 30.298 A 6.045 6.045 0 0 0 73.543 30.26 A 4.686 4.686 0 0 0 74.097 30.164 A 3.534 3.534 0 0 0 75.134 29.736 A 4.03 4.03 0 0 0 75.715 29.299 A 5.06 5.06 0 0 0 76.05 28.967 A 6.199 6.199 0 0 0 76.483 28.439 Q 76.69 28.159 76.891 27.829 A 9.934 9.934 0 0 0 76.904 27.808 Z M 95.142 27.808 L 96.021 28.491 A 10.627 10.627 0 0 1 95.206 29.514 Q 94.764 30 94.312 30.35 A 4.941 4.941 0 0 1 93.604 30.811 A 5.556 5.556 0 0 1 90.967 31.47 Q 90.499 31.47 90.133 31.389 A 2.69 2.69 0 0 1 90.064 31.372 A 18.36 18.36 0 0 1 88.907 33.092 A 14.092 14.092 0 0 1 87.817 34.363 A 14.684 14.684 0 0 1 86.461 35.603 A 11.616 11.616 0 0 1 85.376 36.377 A 10.794 10.794 0 0 1 83.983 37.121 A 8.677 8.677 0 0 1 82.91 37.512 Q 81.689 37.866 80.64 37.866 A 5.353 5.353 0 0 1 79.208 37.679 A 4.82 4.82 0 0 1 78.65 37.488 A 4.442 4.442 0 0 1 77.075 36.401 A 4.956 4.956 0 0 1 76.146 34.957 A 5.751 5.751 0 0 1 76.05 34.717 A 5.693 5.693 0 0 1 75.735 33.401 A 7.298 7.298 0 0 1 75.684 32.52 A 8.234 8.234 0 0 1 75.942 30.504 A 9.508 9.508 0 0 1 76.074 30.029 A 13.818 13.818 0 0 1 77.033 27.709 A 15.328 15.328 0 0 1 77.136 27.515 A 17.182 17.182 0 0 1 78.711 25.11 A 19.747 19.747 0 0 1 80.664 22.949 Q 81.714 21.948 82.837 21.143 A 14.258 14.258 0 0 1 84.311 20.211 A 12.055 12.055 0 0 1 85.083 19.824 L 85.864 20.85 A 15.677 15.677 0 0 0 84.561 21.9 A 21.16 21.16 0 0 0 83.24 23.193 A 21.65 21.65 0 0 0 80.823 26.294 Q 79.736 27.979 79.041 29.797 Q 78.345 31.616 78.345 33.325 Q 78.345 34.863 79.028 35.706 Q 79.681 36.51 80.98 36.546 A 4.443 4.443 0 0 0 81.104 36.548 A 5.438 5.438 0 0 0 83.158 36.137 A 6.207 6.207 0 0 0 83.228 36.108 A 9.12 9.12 0 0 0 84.775 35.271 A 10.659 10.659 0 0 0 85.278 34.912 A 13.021 13.021 0 0 0 86.679 33.679 A 15.277 15.277 0 0 0 87.207 33.118 A 24.927 24.927 0 0 0 88.965 30.908 A 4.298 4.298 0 0 1 87.822 29.925 A 4.944 4.944 0 0 1 87.72 29.797 A 6.62 6.62 0 0 1 86.985 28.591 A 7.689 7.689 0 0 1 86.816 28.211 Q 86.45 27.319 86.267 26.294 A 11.921 11.921 0 0 1 86.084 24.194 A 7.667 7.667 0 0 1 86.235 22.652 A 6.842 6.842 0 0 1 86.353 22.168 A 6.485 6.485 0 0 1 86.732 21.145 A 5.292 5.292 0 0 1 87.097 20.496 A 4.271 4.271 0 0 1 87.682 19.783 A 3.519 3.519 0 0 1 88.208 19.36 Q 88.843 18.945 89.6 18.945 A 2.251 2.251 0 0 1 90.425 19.094 A 2.112 2.112 0 0 1 90.82 19.299 A 2.78 2.78 0 0 1 91.53 19.981 A 3.426 3.426 0 0 1 91.724 20.276 Q 92.09 20.899 92.285 21.753 A 7.836 7.836 0 0 1 92.465 23.044 A 9.272 9.272 0 0 1 92.481 23.584 Q 92.481 24.316 92.358 25.195 A 15.478 15.478 0 0 1 92.004 26.965 Q 91.773 27.857 91.443 28.723 A 9.021 9.021 0 0 1 91 29.712 A 7.406 7.406 0 0 1 90.674 30.274 A 0.803 0.803 0 0 0 90.869 30.298 L 91.089 30.298 A 6.045 6.045 0 0 0 91.781 30.26 A 4.686 4.686 0 0 0 92.334 30.164 A 3.534 3.534 0 0 0 93.372 29.736 A 4.03 4.03 0 0 0 93.952 29.299 A 5.06 5.06 0 0 0 94.287 28.967 A 6.199 6.199 0 0 0 94.72 28.439 Q 94.927 28.159 95.129 27.829 A 9.934 9.934 0 0 0 95.142 27.808 Z M 46.68 33.399 Q 47.339 32.153 47.986 30.945 A 89.557 89.557 0 0 1 49.329 28.528 Q 50.024 27.319 50.818 26.05 Q 51.611 24.78 52.588 23.413 A 2.176 2.176 0 0 0 52.478 22.97 A 2.82 2.82 0 0 0 52.344 22.656 A 2.583 2.583 0 0 0 51.915 22.046 A 3 3 0 0 0 51.807 21.936 Q 51.465 21.607 50.928 21.387 A 2.823 2.823 0 0 0 50.322 21.219 Q 50.042 21.172 49.724 21.168 A 4.794 4.794 0 0 0 49.658 21.167 A 7.525 7.525 0 0 0 48.888 21.209 Q 48.495 21.25 48.06 21.329 A 13.263 13.263 0 0 0 47.766 21.387 A 9.369 9.369 0 0 0 46.537 21.734 A 12.171 12.171 0 0 0 45.532 22.144 A 11.96 11.96 0 0 0 44.128 22.911 A 15.181 15.181 0 0 0 43.152 23.584 Q 41.943 24.487 40.796 25.855 A 20.077 20.077 0 0 0 39.307 27.853 A 15.283 15.283 0 0 0 38.208 29.846 A 11.724 11.724 0 0 0 37.64 31.347 Q 37.399 32.158 37.331 32.901 A 6.283 6.283 0 0 0 37.305 33.472 A 4.995 4.995 0 0 0 37.383 34.388 Q 37.48 34.906 37.696 35.309 A 2.44 2.44 0 0 0 38.11 35.877 A 2.669 2.669 0 0 0 39.495 36.615 A 3.924 3.924 0 0 0 40.308 36.694 Q 41.662 36.694 43.172 35.923 A 9.679 9.679 0 0 0 43.42 35.791 A 15.088 15.088 0 0 0 45.364 34.512 A 19.108 19.108 0 0 0 46.68 33.399 Z M 150.659 29.956 Q 150.977 29.443 151.44 28.65 A 104.584 104.584 0 0 1 152.164 27.432 A 116.162 116.162 0 0 1 152.417 27.014 Q 152.93 26.172 153.418 25.391 Q 153.906 24.609 154.273 24.072 A 2.416 2.416 0 0 0 154.269 23.946 Q 154.261 23.801 154.238 23.588 A 14.343 14.343 0 0 0 154.211 23.364 A 2.631 2.631 0 0 0 154.042 22.718 A 3.312 3.312 0 0 0 153.882 22.376 A 2.082 2.082 0 0 0 153.451 21.829 A 2.865 2.865 0 0 0 153.027 21.509 A 2.107 2.107 0 0 0 152.487 21.275 Q 152.023 21.143 151.392 21.143 A 5.87 5.87 0 0 0 150.642 21.194 Q 150.264 21.242 149.85 21.338 A 10.033 10.033 0 0 0 149.695 21.375 A 7.844 7.844 0 0 0 148.724 21.686 Q 148.224 21.881 147.693 22.156 A 11.614 11.614 0 0 0 146.513 22.863 A 15.391 15.391 0 0 0 145.508 23.608 A 14.154 14.154 0 0 0 144.315 24.692 A 18.968 18.968 0 0 0 143.262 25.855 A 20.092 20.092 0 0 0 141.689 28.011 A 15.666 15.666 0 0 0 140.662 29.92 Q 139.943 31.52 139.788 32.872 A 6.358 6.358 0 0 0 139.746 33.594 Q 139.746 34.564 140.055 35.226 A 2.334 2.334 0 0 0 140.381 35.742 A 2.064 2.064 0 0 0 141.635 36.452 A 3.078 3.078 0 0 0 142.188 36.499 A 5.453 5.453 0 0 0 144.702 35.901 A 9.659 9.659 0 0 0 146.771 34.468 A 10.811 10.811 0 0 0 146.899 34.351 A 19.372 19.372 0 0 0 148.736 32.383 A 21.283 21.283 0 0 0 148.853 32.239 Q 149.78 31.079 150.659 29.956 Z M 107.752 26.721 A 29.902 29.902 0 0 0 107.447 27.836 Q 107.003 29.598 106.909 30.982 Q 105.859 32.227 104.907 33.093 Q 103.955 33.96 103.088 34.509 A 10.699 10.699 0 0 1 102.847 34.658 Q 102.49 34.871 102.156 35.031 A 5.84 5.84 0 0 1 101.489 35.303 Q 100.757 35.547 100.147 35.547 Q 98.853 35.547 98.084 34.522 Q 97.555 33.817 97.39 32.731 A 7.096 7.096 0 0 1 97.314 31.665 A 8.829 8.829 0 0 1 97.33 31.151 A 9.669 9.669 0 0 1 97.742 28.894 Q 98.169 27.49 98.914 26.196 A 14.912 14.912 0 0 1 100.659 23.767 Q 101.66 22.632 102.795 21.802 A 11.767 11.767 0 0 1 102.938 21.699 A 10.59 10.59 0 0 1 105.164 20.483 A 7.56 7.56 0 0 1 105.74 20.281 A 6.322 6.322 0 0 1 107.593 19.995 A 3.969 3.969 0 0 1 108.066 20.023 A 3.168 3.168 0 0 1 108.997 20.276 A 2.679 2.679 0 0 1 109.22 20.389 A 2.152 2.152 0 0 1 109.961 21.069 A 59.063 59.063 0 0 0 109.336 22.457 Q 108.847 23.582 108.464 24.605 A 30.713 30.713 0 0 0 107.752 26.721 Z M 198.523 26.721 A 29.902 29.902 0 0 0 198.218 27.836 Q 197.774 29.598 197.681 30.982 Q 196.631 32.227 195.679 33.093 Q 194.727 33.96 193.86 34.509 A 10.699 10.699 0 0 1 193.619 34.658 Q 193.261 34.871 192.927 35.031 A 5.84 5.84 0 0 1 192.261 35.303 Q 191.528 35.547 190.918 35.547 Q 189.624 35.547 188.855 34.522 Q 188.326 33.817 188.161 32.731 A 7.096 7.096 0 0 1 188.086 31.665 A 8.829 8.829 0 0 1 188.101 31.151 A 9.669 9.669 0 0 1 188.513 28.894 Q 188.94 27.49 189.685 26.196 A 14.912 14.912 0 0 1 191.431 23.767 Q 192.432 22.632 193.567 21.802 A 11.767 11.767 0 0 1 193.709 21.699 A 10.59 10.59 0 0 1 195.935 20.483 A 7.56 7.56 0 0 1 196.511 20.281 A 6.322 6.322 0 0 1 198.364 19.995 A 3.969 3.969 0 0 1 198.837 20.023 A 3.168 3.168 0 0 1 199.768 20.276 A 2.679 2.679 0 0 1 199.992 20.389 A 2.152 2.152 0 0 1 200.732 21.069 A 59.063 59.063 0 0 0 200.107 22.457 Q 199.618 23.582 199.235 24.605 A 30.713 30.713 0 0 0 198.523 26.721 Z M 31.323 57.935 A 2.843 2.843 0 0 0 32.315 57.747 Q 32.775 57.577 33.252 57.251 Q 34.153 56.636 35.074 55.614 A 15.283 15.283 0 0 0 35.278 55.383 A 21.313 21.313 0 0 0 36.424 53.932 A 27.484 27.484 0 0 0 37.305 52.637 A 57.287 57.287 0 0 0 38.792 50.176 A 65.109 65.109 0 0 0 39.282 49.304 Q 40.259 47.534 41.15 45.679 Q 42.041 43.823 42.847 42.041 Q 39.33 43.882 36.806 45.872 A 27.948 27.948 0 0 0 36.633 46.008 A 41.34 41.34 0 0 0 34.593 47.747 Q 33.664 48.596 32.907 49.411 A 22.493 22.493 0 0 0 32.422 49.951 A 23.747 23.747 0 0 0 31.361 51.255 Q 30.887 51.885 30.529 52.468 A 10.661 10.661 0 0 0 30.042 53.345 Q 29.297 54.858 29.297 55.664 A 3.732 3.732 0 0 0 29.359 56.363 Q 29.436 56.768 29.61 57.093 A 2.137 2.137 0 0 0 29.736 57.3 A 1.332 1.332 0 0 0 30.372 57.783 Q 30.604 57.873 30.896 57.91 A 3.45 3.45 0 0 0 31.323 57.935 Z M 135.4 1.294 A 2.788 2.788 0 0 0 133.751 1.839 A 3.772 3.772 0 0 0 133.386 2.136 Q 132.559 2.897 131.603 4.545 A 23.349 23.349 0 0 0 131.397 4.907 A 43.254 43.254 0 0 0 130.62 6.372 Q 129.844 7.902 128.931 9.937 A 1282.549 1282.549 0 0 0 127.801 12.461 Q 126.788 14.731 125.537 17.554 A 69.177 69.177 0 0 0 128.346 14.665 A 53.916 53.916 0 0 0 130.237 12.488 A 69.243 69.243 0 0 0 131.871 10.423 Q 132.838 9.148 133.594 8.008 A 36.265 36.265 0 0 0 134.489 6.591 Q 134.88 5.938 135.185 5.352 A 16.333 16.333 0 0 0 135.608 4.48 A 14.353 14.353 0 0 0 135.902 3.777 Q 136.15 3.133 136.235 2.675 A 2.372 2.372 0 0 0 136.279 2.246 A 1.277 1.277 0 0 0 136.248 1.954 A 0.856 0.856 0 0 0 136.035 1.55 Q 135.791 1.294 135.4 1.294 Z M 69.116 24.194 A 9.496 9.496 0 0 0 69.155 25.03 A 12.252 12.252 0 0 0 69.238 25.733 Q 69.36 26.563 69.629 27.344 Q 69.898 28.125 70.313 28.796 A 3.447 3.447 0 0 0 70.941 29.557 A 3.08 3.08 0 0 0 71.338 29.858 A 13.078 13.078 0 0 0 72.083 28.113 A 21.997 21.997 0 0 0 72.478 26.837 A 19.038 19.038 0 0 0 72.595 26.392 A 14.137 14.137 0 0 0 72.772 25.589 A 11.03 11.03 0 0 0 72.888 24.841 Q 72.954 24.29 72.969 23.846 A 7.595 7.595 0 0 0 72.974 23.584 Q 72.974 22.852 72.852 22.241 A 5.757 5.757 0 0 0 72.718 21.704 Q 72.632 21.419 72.522 21.179 A 2.434 2.434 0 0 0 72.322 20.821 Q 72.19 20.628 72.031 20.49 A 1.508 1.508 0 0 0 72.009 20.471 A 1.121 1.121 0 0 0 71.694 20.281 A 0.975 0.975 0 0 0 71.338 20.215 A 1.398 1.398 0 0 0 70.52 20.481 A 1.775 1.775 0 0 0 70.435 20.545 A 2.519 2.519 0 0 0 69.963 21.042 A 3.262 3.262 0 0 0 69.727 21.423 A 4.433 4.433 0 0 0 69.439 22.095 A 5.74 5.74 0 0 0 69.275 22.693 A 6.92 6.92 0 0 0 69.117 24.097 A 7.635 7.635 0 0 0 69.116 24.194 Z M 87.354 24.194 A 9.496 9.496 0 0 0 87.392 25.03 A 12.252 12.252 0 0 0 87.476 25.733 Q 87.598 26.563 87.866 27.344 Q 88.135 28.125 88.55 28.796 A 3.447 3.447 0 0 0 89.179 29.557 A 3.08 3.08 0 0 0 89.575 29.858 A 13.078 13.078 0 0 0 90.32 28.113 A 21.997 21.997 0 0 0 90.715 26.837 A 19.038 19.038 0 0 0 90.833 26.392 A 14.137 14.137 0 0 0 91.01 25.589 A 11.03 11.03 0 0 0 91.126 24.841 Q 91.191 24.29 91.206 23.846 A 7.595 7.595 0 0 0 91.211 23.584 Q 91.211 22.852 91.089 22.241 A 5.757 5.757 0 0 0 90.956 21.704 Q 90.87 21.419 90.759 21.179 A 2.434 2.434 0 0 0 90.559 20.821 Q 90.427 20.628 90.268 20.49 A 1.508 1.508 0 0 0 90.247 20.471 A 1.121 1.121 0 0 0 89.931 20.281 A 0.975 0.975 0 0 0 89.575 20.215 A 1.398 1.398 0 0 0 88.757 20.481 A 1.775 1.775 0 0 0 88.672 20.545 A 2.519 2.519 0 0 0 88.201 21.042 A 3.262 3.262 0 0 0 87.964 21.423 A 4.433 4.433 0 0 0 87.677 22.095 A 5.74 5.74 0 0 0 87.512 22.693 A 6.92 6.92 0 0 0 87.354 24.097 A 7.635 7.635 0 0 0 87.354 24.194 Z M 12.822 15.876 A 2.174 2.174 0 0 0 12.915 15.259 A 1.128 1.128 0 0 0 12.786 14.733 A 1.474 1.474 0 0 0 12.549 14.404 Q 12.183 14.014 11.67 14.014 A 1.455 1.455 0 0 0 10.718 14.356 Q 10.303 14.697 10.01 15.173 A 3.863 3.863 0 0 0 9.57 16.187 Q 9.424 16.724 9.424 17.114 Q 9.424 17.554 9.644 17.859 Q 9.863 18.164 10.278 18.164 A 1.663 1.663 0 0 0 10.749 18.095 A 2.088 2.088 0 0 0 11.206 17.896 A 3.531 3.531 0 0 0 12.048 17.212 Q 12.427 16.797 12.671 16.272 A 2.859 2.859 0 0 0 12.822 15.876 Z" vector-effect="non-scaling-stroke"/></g></svg>